<svg xmlns="http://www.w3.org/2000/svg" viewBox="0 0 64 64" width="64" height="64">
  <defs>
    <linearGradient id="evk" x1="0" y1="0" x2="1" y2="1">
      <stop offset="0%" stop-color="#7C3AED"/>
      <stop offset="100%" stop-color="#EC4899"/>
    </linearGradient>
  </defs>
  <rect width="64" height="64" rx="16" fill="url(#evk)"/>
  <g fill="none" stroke="#FFFFFF" stroke-width="3.2" stroke-linecap="round" stroke-linejoin="round">
    <path d="M14 26v-4a4 4 0 0 1 4-4h28a4 4 0 0 1 4 4v4a4 4 0 0 0 0 8v4a4 4 0 0 1-4 4H18a4 4 0 0 1-4-4v-4a4 4 0 0 0 0-8Z"/>
    <path d="M28 18v28" stroke-dasharray="2.5 3.5"/>
  </g>
</svg>
